<svg width="162" height="162" viewBox="0 0 162 162" fill="none" xmlns="http://www.w3.org/2000/svg">
<path d="M81.5 81V81C104.96 94.5446 112.998 124.543 99.4533 148.003L91.4779 161.816V161.816C68.018 148.272 59.9801 118.274 73.5246 94.8137L81.5 81Z" fill="#FFD700"/>
<path d="M80.8163 81.5V81.5C67.2717 104.96 37.2736 112.998 13.8137 99.4533L-4.79773e-07 91.4779V91.4779C13.5446 68.018 43.5426 59.9801 67.0026 73.5246L80.8163 81.5Z" fill="#FFD700"/>
<path d="M81 81V81C81 108.089 59.0399 130.049 31.9507 130.049L16 130.049V130.049C16 102.96 37.9601 81 65.0493 81L81 81Z" fill="#FFF441"/>
<path d="M81.478 80.8163V80.8163C58.0181 67.2717 49.9802 37.2736 63.5248 13.8137L71.5001 -4.79773e-07V-4.79773e-07C94.96 13.5446 102.998 43.5426 89.4534 67.0026L81.478 80.8163Z" fill="#FFD700"/>
<path d="M17 30.6949V30.6949C43.1661 23.6837 70.0616 39.2118 77.0728 65.378L81.2012 80.7852V80.7852C55.0351 87.7964 28.1395 72.2682 21.1284 46.1021L17 30.6949Z" fill="#FFF441"/>
<path d="M81 81.4779V81.4779C94.5446 58.018 124.543 49.9801 148.003 63.5246L161.816 71.5V71.5C148.272 94.9599 118.274 102.998 94.8137 89.4533L81 81.4779Z" fill="#FFD700"/>
<path d="M80.6948 81.2012V81.2012C73.6836 55.0351 89.2118 28.1396 115.378 21.1284L130.785 17V17C137.796 43.1661 122.268 70.0617 96.102 77.0729L80.6948 81.2012Z" fill="#FFF441"/>
<path d="M81 80.6949V80.6949C107.166 73.6837 134.062 89.2118 141.073 115.378L145.201 130.785V130.785C119.035 137.796 92.1395 122.268 85.1284 96.1021L81 80.6949Z" fill="#FFF441"/>
<circle cx="80.8334" cy="81" r="25" fill="#333333"/>
<circle cx="81.3334" cy="81.5" r="12.5" fill="#B0B0B0"/>
</svg>
